<svg width="1200" height="630" viewBox="0 0 1200 630" fill="none" xmlns="http://www.w3.org/2000/svg">
  <defs>
    <linearGradient id="bg" x1="0" y1="0" x2="1200" y2="630" gradientUnits="userSpaceOnUse">
      <stop stop-color="#0F172A"/>
      <stop offset="0.48" stop-color="#1E1B4B"/>
      <stop offset="1" stop-color="#7C3AED"/>
    </linearGradient>
    <filter id="blur" x="0" y="0" width="1200" height="630" filterUnits="userSpaceOnUse" color-interpolation-filters="sRGB">
      <feGaussianBlur stdDeviation="42"/>
    </filter>
  </defs>

  <rect width="1200" height="630" fill="url(#bg)"/>

  <g filter="url(#blur)" opacity="0.52">
    <circle cx="190" cy="128" r="104" fill="#A78BFA"/>
    <circle cx="1036" cy="122" r="118" fill="#8B5CF6"/>
    <circle cx="954" cy="514" r="126" fill="#22D3EE"/>
  </g>

  <rect x="88" y="78" width="1024" height="474" rx="30" fill="rgba(255,255,255,0.06)" stroke="rgba(255,255,255,0.1)"/>

  <rect x="136" y="124" width="188" height="42" rx="21" fill="#8B5CF6" fill-opacity="0.18"/>
  <text x="164" y="151" fill="#C4B5FD" font-size="24" font-family="Inter, PingFang SC, Microsoft YaHei, sans-serif">Flow × Coding</text>

  <text x="136" y="244" fill="white" font-size="56" font-weight="700" font-family="Inter, PingFang SC, Microsoft YaHei, sans-serif">拥抱心流</text>
  <text x="136" y="318" fill="#E9D5FF" font-size="40" font-weight="600" font-family="Inter, PingFang SC, Microsoft YaHei, sans-serif">Vibe Coding 的实战技巧</text>

  <text x="136" y="392" fill="#D8E4FF" font-size="28" font-family="Inter, PingFang SC, Microsoft YaHei, sans-serif">优化环境、管理专注力，让编码进入真正的 Flow State</text>

  <g opacity="0.95">
    <rect x="136" y="448" width="146" height="16" rx="8" fill="#A78BFA"/>
    <rect x="298" y="448" width="132" height="16" rx="8" fill="#C4B5FD"/>
    <rect x="446" y="448" width="184" height="16" rx="8" fill="#DDD6FE" fill-opacity="0.85"/>
    <rect x="136" y="480" width="224" height="16" rx="8" fill="#67E8F9" fill-opacity="0.86"/>
    <rect x="376" y="480" width="174" height="16" rx="8" fill="#BAE6FD" fill-opacity="0.72"/>
  </g>

  <g>
    <rect x="846" y="190" width="194" height="214" rx="22" fill="#120C2D" fill-opacity="0.64" stroke="rgba(255,255,255,0.1)"/>
    <rect x="882" y="228" width="122" height="14" rx="7" fill="#A78BFA"/>
    <rect x="882" y="260" width="92" height="12" rx="6" fill="#C4B5FD" fill-opacity="0.9"/>
    <rect x="882" y="294" width="136" height="12" rx="6" fill="#DDD6FE" fill-opacity="0.78"/>
    <rect x="882" y="328" width="78" height="12" rx="6" fill="#67E8F9" fill-opacity="0.84"/>
    <rect x="882" y="362" width="128" height="12" rx="6" fill="#BFDBFE" fill-opacity="0.72"/>
    <text x="882" y="430" fill="#F5F3FF" font-size="24" font-family="Inter, PingFang SC, Microsoft YaHei, sans-serif">Vibe Coding</text>
  </g>

  <text x="136" y="526" fill="#94A3B8" font-size="22" font-family="Inter, PingFang SC, Microsoft YaHei, sans-serif">Ervin Blog</text>
</svg>
